<svg xmlns="http://www.w3.org/2000/svg" width="44.588" height="51.275" viewBox="0 0 44.588 51.275">
  <g id="Grupo_95" data-name="Grupo 95" transform="translate(0.143)">
    <path id="Caminho_594" data-name="Caminho 594" d="M-13613.084-9097.629h-8.209v24.051h44.588v-24.051h-11.312v17.816h-19.744v-11.136l-2.012-2.017v-4.664Z" transform="translate(13621.15 9124.854)" fill="#e9e9e9"/>
    <path id="Caminho_557" data-name="Caminho 557" d="M52.345.282c.86.2,1.737.341,2.571.617a11.924,11.924,0,1,1-5.21-.515,1.717,1.717,0,0,0,.3-.1C50.786.282,51.564.282,52.345.282Z" transform="translate(-28.984 -0.282)" fill="#e9e9e9" fill-rule="evenodd"/>
    <path id="Caminho_558" data-name="Caminho 558" d="M55.055,25.049c.611-2.426,1.182-4.711,1.756-6.993.115-.466.194-.945.351-1.392a.775.775,0,0,0-.269-.926c-1.11-1.077-2.193-2.18-3.283-3.273-.121-.121-.236-.253-.4-.424l1.527-1.024c1.077-.719,2.15-1.445,3.24-2.147a.639.639,0,0,1,.542-.069c1.622,1.051,3.224,2.127,5,3.313a7.846,7.846,0,0,0-.716.555q-1.6,1.566-3.162,3.171a.874.874,0,0,0-.23.676c.653,2.761,1.339,5.512,2.022,8.267a2.763,2.763,0,0,0,.112.279c.108-.24.194-.42.272-.6q3.354-7.653,6.687-15.308a.766.766,0,0,1,.824-.529A10.631,10.631,0,0,1,75.508,10.1a9.961,9.961,0,0,1,4.954,8.608c.072,2.876.033,5.755.013,8.634A5.1,5.1,0,0,1,75.3,32.511q-16.994.015-34,0a5.108,5.108,0,0,1-5.167-5.174c-.013-2.879-.023-5.758,0-8.634A10.229,10.229,0,0,1,46.168,8.64c.548-.007,1.218-.181,1.615.069s.512.929.735,1.428q3.132,7.14,6.251,14.278C54.838,24.579,54.914,24.737,55.055,25.049Z" transform="translate(-36.119 18.651)" fill="#e9e9e9" fill-rule="evenodd"/>
  </g>
</svg>
