<svg id="notepad" xmlns="http://www.w3.org/2000/svg" width="25.037" height="27.28" viewBox="0 0 25.037 27.28">
  <path id="Caminho_8361" data-name="Caminho 8361" d="M37.56,33.218h.377c.157.112.361.194.457.345a1.23,1.23,0,0,1,.161.6c.02.6.007,1.2.007,1.826h1.722c.663,0,.967.3.967.962,0,1.3,0,2.593,0,3.889a.561.561,0,0,1-.189.44q-1.918,1.887-3.823,3.787a.6.6,0,0,1-.468.192q-4.694-.009-9.389,0c-.789,0-1.578-.006-2.367,0a.8.8,0,0,0-.8.777.82.82,0,0,0,.791.816c.08,0,.161,0,.242,0H35.438c-.512.505-.968.945-1.41,1.4a.62.62,0,0,1-.489.205q-3.928-.01-7.855,0c-.224,0-.449,0-.672,0A.8.8,0,1,0,25.1,50.05q3.376,0,6.752,0h.28a4.216,4.216,0,0,0-.9,1.462.326.326,0,0,1-.247.131c-.574.011-1.148.006-1.722.006q-2.085,0-4.17,0a.819.819,0,0,0-.824.522.8.8,0,0,0,.819,1.075q2.515.005,5.031,0h.244L29.98,54.8l.071.048h-.288q-2.327,0-4.654,0a.823.823,0,0,0-.83.513.807.807,0,0,0,.834,1.084q2.905,0,5.811,0a.843.843,0,0,1,.339.046,2.27,2.27,0,0,0,2-.05c.835-.387,1.684-.745,2.514-1.143a3.079,3.079,0,0,0,.81-.551C38.065,53.3,39.531,51.84,41,50.384c.065-.064.132-.127.218-.21a.706.706,0,0,1,.03.119c0,2.6.006,5.2,0,7.806a2.217,2.217,0,0,1-.986,1.915,6.479,6.479,0,0,1-1.087.485H23.087a.169.169,0,0,0-.045-.028,2.417,2.417,0,0,1-2.049-2.623q0-10.425,0-20.85c0-.728.286-1.009,1.027-1.009h1.708c0-.6.022-1.165-.007-1.729a.962.962,0,0,1,.6-1.041h.43a1.013,1.013,0,0,1,.593,1.079c-.028.555-.006,1.113-.006,1.678h1.683c0-.589.015-1.164,0-1.738a.931.931,0,0,1,.64-1.019h.377a.921.921,0,0,1,.6,1.034c-.016.167,0,.336,0,.5v1.212h1.7c0-.586.021-1.152-.006-1.717a.948.948,0,0,1,.609-1.034h.377a.931.931,0,0,1,.639,1.019c-.019.574,0,1.149,0,1.731h1.683c0-.571.022-1.122-.006-1.671a1.012,1.012,0,0,1,.594-1.079h.43a.941.941,0,0,1,.6,1.039c-.022.264,0,.531,0,.8v.924h1.7c0-.585.019-1.159-.006-1.731A.941.941,0,0,1,37.56,33.218Zm-9.5,10.439c.994,0,1.989.008,2.983-.007A1.185,1.185,0,0,0,31.6,43.5a.749.749,0,0,0,.307-.887.8.8,0,0,0-.8-.552q-2.983,0-5.966,0a.822.822,0,0,0-.918.793.832.832,0,0,0,.937.8Z" transform="translate(-20.993 -33.218)" fill="#343434" fill-rule="evenodd"/>
  <path id="Caminho_8362" data-name="Caminho 8362" d="M178.945,176.592l2.223,2.223a.843.843,0,0,0-.236.123q-3.722,3.713-7.44,7.43a1.333,1.333,0,0,1-.371.26c-.8.373-1.612.733-2.416,1.1a.557.557,0,0,1-.685-.053.543.543,0,0,1-.06-.684c.372-.822.744-1.645,1.122-2.464a1.03,1.03,0,0,1,.2-.29q3.759-3.766,7.524-7.527C178.855,176.667,178.907,176.625,178.945,176.592Z" transform="translate(-158.72 -166.102)" fill="#343434" fill-rule="evenodd"/>
  <path id="Caminho_8363" data-name="Caminho 8363" d="M322.4,141.227l-2.068-2.07a13.346,13.346,0,0,1,1.208-1.3,1.465,1.465,0,0,1,1.992.2,1.5,1.5,0,0,1,.064,2.006C323.227,140.478,322.8,140.838,322.4,141.227Z" transform="translate(-298.912 -130.096)" fill="#343434" fill-rule="evenodd"/>
</svg>
