<svg xmlns="http://www.w3.org/2000/svg" width="42.796" height="37.062" viewBox="0 0 42.796 37.062">
  <path id="folder-search" d="M30.626,19.291A8.609,8.609,0,0,1,37.909,32.48L43.8,38.4l-2.657,2.657-5.964-5.868a8.6,8.6,0,1,1-4.549-15.9m0,3.823A4.778,4.778,0,1,0,35.4,27.892a4.778,4.778,0,0,0-4.778-4.778M16.291,4l3.823,3.823H35.4a3.823,3.823,0,0,1,3.823,3.823v7.282A12.423,12.423,0,0,0,18.2,27.892a12.556,12.556,0,0,0,1.911,6.69H4.823A3.822,3.822,0,0,1,1,30.759V7.823A3.81,3.81,0,0,1,4.823,4Z" transform="translate(-1 -4)" fill="#e9e9e9"/>
</svg>
