<svg xmlns="http://www.w3.org/2000/svg" width="52.139" height="48.982" viewBox="0 0 52.139 48.982">
  <g id="Grupo_3704" data-name="Grupo 3704" transform="translate(-137.287 -1160.394)">
    <path id="Subtração_3" data-name="Subtração 3" d="M22943.848,4514.366h-40.264V4474.1h13.822a6.683,6.683,0,0,1,12.617,0h13.824v17.871a11.52,11.52,0,0,0-8.949.345v-.326h-22.367v4.477h17.635a11.431,11.431,0,0,0,13.682,16.875v1.021Zm-31.316-13.426h0v4.477h15.66v-4.477h-15.66Zm0-17.891h0v4.471h22.367v-4.471h-22.367Zm11.184-8.947a2.236,2.236,0,1,0,2.236,2.235A2.237,2.237,0,0,0,22923.715,4474.1Z" transform="translate(-22766.297 -3309.231)" fill="#e9e9e9"/>
    <path id="Caminho_8537" data-name="Caminho 8537" d="M21.135,18.959H19.989l-.406-.392a9.445,9.445,0,1,0-1.016,1.016l.392.406v1.146l7.254,7.24,2.162-2.162Zm-8.705,0a6.529,6.529,0,1,1,6.529-6.529A6.52,6.52,0,0,1,12.43,18.959Z" transform="translate(161.051 1181)" fill="#e9e9e9"/>
  </g>
</svg>
