<svg xmlns="http://www.w3.org/2000/svg" width="46" height="46" viewBox="0 0 46 46">
  <g id="engineering_black_24dp" transform="translate(-0.068 -0.068)">
    <g id="Grupo_41" data-name="Grupo 41" transform="translate(0.002 0.002)">
      <rect id="Retângulo_46" data-name="Retângulo 46" width="46" height="46" transform="translate(0.066 0.066)" fill="none"/>
    </g>
    <g id="Grupo_43" data-name="Grupo 43" transform="translate(1.867 5.797)">
      <g id="Grupo_42" data-name="Grupo 42">
        <path id="Caminho_578" data-name="Caminho 578" d="M16.458,15C11.3,15,1,17.589,1,22.729v3.865H31.916V22.729C31.916,17.589,21.617,15,16.458,15Z" transform="translate(-1 8.187)" fill="#e9e9e9"/>
        <path id="Caminho_579" data-name="Caminho 579" d="M22.607,11.729H21.157a7.723,7.723,0,0,0-3.865-6.666V6.9a.966.966,0,0,1-1.932,0V4.271A7.9,7.9,0,0,0,13.428,4a7.9,7.9,0,0,0-1.932.271V6.9a.966.966,0,0,1-1.932,0V5.063A7.723,7.723,0,0,0,5.7,11.729H4.25v1.932H22.607Z" transform="translate(2.03 -2.068)" fill="#e9e9e9"/>
        <path id="Caminho_580" data-name="Caminho 580" d="M12.6,15.8A7.729,7.729,0,0,0,20.057,10H5.14A7.729,7.729,0,0,0,12.6,15.8Z" transform="translate(2.86 3.526)" fill="#e9e9e9"/>
        <path id="Caminho_581" data-name="Caminho 581" d="M27.471,9.241l1.8-1.6L27.819,5.126l-2.3.754a3.831,3.831,0,0,0-.908-.522L24.128,3h-2.9l-.483,2.357a4.39,4.39,0,0,0-.927.522l-2.28-.754L16.09,7.637l1.8,1.6a4.368,4.368,0,0,0,0,1l-1.8,1.642L17.539,14.4l2.319-.734a4.441,4.441,0,0,0,.831.483l.541,2.377h2.9l.522-2.357a4.6,4.6,0,0,0,.85-.483l2.3.734,1.449-2.512-1.8-1.642A4.579,4.579,0,0,0,27.471,9.241Zm-4.792,2.937a2.415,2.415,0,1,1,2.415-2.415A2.416,2.416,0,0,1,22.679,12.178Z" transform="translate(13.068 -3)" fill="#e9e9e9"/>
        <path id="Caminho_582" data-name="Caminho 582" d="M23.437,11.526l-1.642.541a2.609,2.609,0,0,0-.638-.367L20.809,10H18.741l-.348,1.681a3.6,3.6,0,0,0-.657.367l-1.623-.541L15.07,13.3l1.275,1.14a4.415,4.415,0,0,0,0,.715L15.07,16.338l1.043,1.8,1.662-.522a3.717,3.717,0,0,0,.6.348l.348,1.7H20.79l.367-1.681a3.9,3.9,0,0,0,.618-.348l1.642.522,1.043-1.8-1.275-1.179a4.414,4.414,0,0,0,0-.715l1.275-1.14ZM19.765,16.55a1.72,1.72,0,1,1,1.72-1.72A1.724,1.724,0,0,1,19.765,16.55Z" transform="translate(12.117 3.526)" fill="#e9e9e9"/>
      </g>
    </g>
  </g>
</svg>
