<svg xmlns="http://www.w3.org/2000/svg" width="61.48" height="40.289" viewBox="0 0 61.48 40.289">
  <g id="noun_Sao_Paulo_168658" data-name="noun_Sao Paulo_168658" transform="translate(-3.178 -18.649)">
    <g id="Grupo_60" data-name="Grupo 60" transform="translate(3.178 18.649)">
      <g id="Grupo_59" data-name="Grupo 59">
        <path id="Caminho_590" data-name="Caminho 590" d="M59.863,43.878a.539.539,0,0,0-.025.659,3.319,3.319,0,0,1,.1.469,2.925,2.925,0,0,0,.574,1.276.919.919,0,0,1,.234.718c.007.177-.06.26-.261.256-.463-.009-.925.02-1.388.012a1.828,1.828,0,0,0-.862.284,1.476,1.476,0,0,1-.767.233.286.286,0,0,0-.17.075c-.109.086-.208.185-.313.276a2.744,2.744,0,0,1-.279.231,3.865,3.865,0,0,1-.359.184,1.512,1.512,0,0,1,.169.362,1.326,1.326,0,0,1-.006.49c-.008.044-.159.093-.238.085-.132-.014-.286-.028-.32-.211a2.576,2.576,0,0,0-.075-.258l-.064,0a.971.971,0,0,0-.093.225c-.031.218-.159.25-.345.211a2.423,2.423,0,0,0-.269-.026l-.011.052.172.057c0,.014-.009.033-.015.05a.853.853,0,0,1-.936.662,1.236,1.236,0,0,1-.5-.227,3.905,3.905,0,0,1-.346-.3.229.229,0,0,0-.14-.031c-.058,0-.119.04-.171.029a2.607,2.607,0,0,0-1.594.394,1.161,1.161,0,0,0-.535.5.35.35,0,0,1-.157.124c-.356.161-.719.309-1.074.472a1.793,1.793,0,0,1-1.4.145.48.48,0,0,0-.321-.01c-.285.126-.56.276-.832.429a1.189,1.189,0,0,0-.548.516.177.177,0,0,1-.109.068.594.594,0,0,0-.4.316.389.389,0,0,1-.142.135,3.786,3.786,0,0,0-.919.8,2.422,2.422,0,0,1-.529.338c-.107.071-.2.164-.305.24s-.235.168-.358.24a3.838,3.838,0,0,0-1.012.658c-.339-.064-.477.339-.8.342-.1,0-.193.151-.3.213-.2.117-.408.217-.61.33-.111.062-.216.138-.324.206a2.636,2.636,0,0,0-.382.245c-.321.3-.627.607-.942.911a2.321,2.321,0,0,0-.36.469,2.008,2.008,0,0,1-.552.484,2.745,2.745,0,0,1-1.252.638,2.019,2.019,0,0,1-1.147-.2.993.993,0,0,1-.235-.191c-.163-.153-.326-.305-.481-.465a.408.408,0,0,1-.136-.213c-.009-.2-.146-.266-.274-.366a.947.947,0,0,1-.3-.332c-.149-.347-.26-.71-.393-1.064a.949.949,0,0,0-.12-.179c-.036-.053-.094-.1-.1-.161a.879.879,0,0,0-.674-.739,3.6,3.6,0,0,1-.52-.308.662.662,0,0,0-.292-.131c-.7.02-1.407.054-2.11.092a1.989,1.989,0,0,0-.386.083,1.4,1.4,0,0,1-.978-.225.841.841,0,0,1-.337-.579c-.018-.117.188-.294.324-.406.454-.373.5-.538.344-1.109A1.706,1.706,0,0,0,29,51.615a.952.952,0,0,1-.134-.164c-.088-.126-.177-.252-.256-.383-.09-.149-.159-.311-.255-.455a2.911,2.911,0,0,0-.267-.311c-.02-.022-.051-.034-.066-.058-.2-.324-.392-.654-.6-.975-.339-.528-.175-1.126-.237-1.691-.043-.4-.012-.8-.039-1.205-.02-.306-.083-.609-.118-.914-.022-.189-.007-.383-.04-.57-.052-.29-.134-.575-.2-.864a4.564,4.564,0,0,1-.1-.56c-.02-.216-.054-.406-.294-.488a.317.317,0,0,1-.137-.131,1.843,1.843,0,0,0-.721-.707.275.275,0,0,1-.1-.082.957.957,0,0,0-.79-.356c-.4-.023-.792-.044-1.187-.073-.077-.006-.187-.022-.219-.072-.113-.178-.277-.162-.446-.162-1.322,0-2.644,0-3.966,0a2.328,2.328,0,0,0-.415.045,1.031,1.031,0,0,1-1.035-.375c-.272-.311-.6-.571-.882-.873a1.145,1.145,0,0,0-.844-.435.182.182,0,0,1-.1-.047,1.167,1.167,0,0,0-1.287-.066,5.008,5.008,0,0,1-1.582.375,1.09,1.09,0,0,1-.581-.214,2.234,2.234,0,0,0-.343-.3,8.906,8.906,0,0,0-.823-.448,2.744,2.744,0,0,0-.654-.278,1.872,1.872,0,0,0-1.341.183,2.294,2.294,0,0,1-1.137.283c-1.359,0-2.718,0-4.077,0a1.38,1.38,0,0,1-.286-.012,1.811,1.811,0,0,1-.274-.1,1.6,1.6,0,0,1,.163-.3.467.467,0,0,1,.214-.1.478.478,0,0,0,.362-.342.233.233,0,0,1,.121-.146,7.151,7.151,0,0,0,1.365-.87c.21-.125.439-.22.66-.327.06-.029.15-.035.177-.081.158-.267.427-.316.687-.419.179-.07.3-.278.455-.422.074-.07.154-.134.231-.2a7.127,7.127,0,0,0,1.427-1.52,3.217,3.217,0,0,0,.381-.873,18.486,18.486,0,0,0,.4-1.885c.017-.1.128-.2.206-.284a2.785,2.785,0,0,1,.233-.223c.155-.14.312-.279.468-.419.081-.073.167-.141.244-.218a3.088,3.088,0,0,0,.334-.36.715.715,0,0,0,.088-.286c.035-.194.058-.39.09-.584.057-.339.119-.676.178-1.014a1.452,1.452,0,0,1,.535-.967c.261-.2.527-.415.763-.638a1.763,1.763,0,0,0,.556-1.153c.024-.344.025-.689.035-1.034a.727.727,0,0,1,.693-.734.512.512,0,0,0,.452-.235,1.641,1.641,0,0,1,.538-.468c.353-.2.576-.585.993-.692a.713.713,0,0,0,.541-.522.43.43,0,0,1,.208-.261.5.5,0,0,0,.306-.362,1.588,1.588,0,0,1,.479-.847.2.2,0,0,0,.069-.109c.058-.293.281-.351.525-.363.308-.015.617-.016.925-.016A.779.779,0,0,0,20,19.511a.318.318,0,0,1,.117-.1c.282-.151.56-.311.851-.442a7.622,7.622,0,0,1,.813-.305c.3-.1.478.194.729.26a2.8,2.8,0,0,1,.4.172c.047.02.117.028.138.064.214.374.63.411.97.549a4.631,4.631,0,0,0,.883.14c.466.086.925.22,1.393.276a7.048,7.048,0,0,0,1.164,0c.532-.025,1.063-.086,1.6-.1a1.076,1.076,0,0,1,.5.141.518.518,0,0,1,.307.514,3.748,3.748,0,0,0,.275,1.431.612.612,0,0,0,.4.357,17.91,17.91,0,0,0,1.837.1.95.95,0,0,0,.558-.176,1.053,1.053,0,0,0,.315-.5c.1-.318.094-.349.438-.358.389-.01.778,0,1.168,0,1.5,0,3,.007,4.5-.02a2.486,2.486,0,0,0,.926-.239,7.421,7.421,0,0,0,.785-.506.645.645,0,0,1,.309-.083c.4-.011.793-.016,1.189,0a.558.558,0,0,1,.261.132c.166.116.318.252.488.362a.379.379,0,0,1,.211.318,2.555,2.555,0,0,0,.215.892,1.738,1.738,0,0,1,.087.667,1.4,1.4,0,0,0,0,.2c.1.334.193.668.307,1a.25.25,0,0,0,.259.192.648.648,0,0,1,.581.535,5.367,5.367,0,0,1-.007.681.224.224,0,0,1-.071.153,1.218,1.218,0,0,0-.448,1.077c0,.235.005.47.009.705a.5.5,0,0,0,.2.484c.036.022.047.1.052.155.014.139,0,.28.028.417.081.474.157.951.267,1.419a3.161,3.161,0,0,0,.275.643.248.248,0,0,0,.16.126c.347.044.695.082,1.043.1.182.011.368-.035.548-.014a1.255,1.255,0,0,1,.36.151c.059.028.109.083.17.094.2.034.271.2.366.336a1.5,1.5,0,0,0,.2.275,1.013,1.013,0,0,1,.42.718.1.1,0,0,0,.022.061c.391.422.127.81-.058,1.205-.149.32-.269.657-.44.965a1.551,1.551,0,0,0-.1.81c-.01.947,0,1.895-.007,2.842a.387.387,0,0,0,.142.316,1.27,1.27,0,0,1,.244.4c.113.243.214.492.314.741s.172.482.274.716a1.463,1.463,0,0,0,.229.381,5.135,5.135,0,0,0,.414.385c.01.01.026.024.025.034-.041.36.327.427.478.649a.394.394,0,0,0,.278.147,17.715,17.715,0,0,0,2.086-.026,1.112,1.112,0,0,0,.871-.388c.036-.052.161-.059.244-.06a.452.452,0,0,0,.4-.231,2.321,2.321,0,0,1,.258-.256,1.951,1.951,0,0,0,.223-.265c.169-.26.415-.218.7-.122.3.1.46.458.809.42a.572.572,0,0,0,.24-.137c.057-.043.092-.136.151-.15.225-.055.336-.24.5-.372a1,1,0,0,1,.562-.241,10.975,10.975,0,0,0,1.942-.222,2.273,2.273,0,0,1,1.3.2.828.828,0,0,1,.364.305,1.254,1.254,0,0,0,1.158.573c.632,0,1.263-.018,1.894-.029a2.059,2.059,0,0,1,.22,0c.38.034.448.3.314.649-.128.335-.425.508-.584.8-.032.058-.161.088-.246.089-.759,0-1.518,0-2.277-.007-.289,0-.587-.074-.809.211-.069.089-.556-.029-.664-.069a1.476,1.476,0,0,0-.5-.061c-.026,0-.066.14-.072.218s.054.147.04.211C59.411,43.532,59.637,43.7,59.863,43.878Z" transform="translate(-3.178 -18.649)" fill="#e9e9e9"/>
      </g>
    </g>
  </g>
</svg>
