<svg xmlns="http://www.w3.org/2000/svg" width="45.406" height="48" viewBox="0 0 45.406 48">
  <g id="Grupo_109" data-name="Grupo 109" transform="translate(-1009.878 -440)">
    <path id="clipboard-edit" d="M44.234,26.44a1.219,1.219,0,0,1,.869.389l2.926,2.926a1.215,1.215,0,0,1,0,1.76L45.743,33.8l-4.686-4.686,2.286-2.286a1.27,1.27,0,0,1,.891-.389m-4.5,4,4.686,4.686L30.566,49H25.857V44.291L39.731,30.44m-.16-24.869a4.585,4.585,0,0,1,4.571,4.571v9.143L21.286,42.143v4.571H7.571A4.585,4.585,0,0,1,3,42.143v-32A4.585,4.585,0,0,1,7.571,5.571h9.554a6.83,6.83,0,0,1,12.891,0h9.554m-16,0a2.286,2.286,0,1,0,2.286,2.286A2.292,2.292,0,0,0,23.571,5.571Z" transform="translate(1006.878 439)" fill="#e9e9e9"/>
    <path id="Caminho_586" data-name="Caminho 586" d="M-11682.467-9454.448h-8.577v41.12h7.148Z" transform="translate(12700.922 9899)" fill="#e9e9e9"/>
    <path id="Caminho_587" data-name="Caminho 587" d="M-11682.9-9454.448h-8.14v13.716h6.784Z" transform="translate(-10640.027 -8996.18) rotate(180)" fill="#e9e9e9"/>
  </g>
</svg>
