<svg xmlns="http://www.w3.org/2000/svg" width="46.986" height="31.444" viewBox="0 0 46.986 31.444">
  <path id="Caminho_593" data-name="Caminho 593" d="M45.2,17.85c-1.257-2.353-4.209-7.625-5.746-8.33a9.483,9.483,0,0,0-2.712-.558c.011-.118.038-.231.038-.35A4.626,4.626,0,0,0,27.527,8.6c-1.421,0-2.51.007-2.95.013-.508-.007-1.89-.021-3.636-.007a4.625,4.625,0,0,0-9.25.011c0,.148.03.288.043.433A7.189,7.189,0,0,0,9.7,9.522c-1.348.617-3.781,4.743-5.212,7.341a10.586,10.586,0,1,0,16.963,11.43,5.369,5.369,0,0,0,5.723-.193A10.589,10.589,0,1,0,45.2,17.85ZM11.691,32.376a7.543,7.543,0,1,1,7.543-7.543A7.542,7.542,0,0,1,11.691,32.376Zm12.452-4.382a1.722,1.722,0,1,1,1.72-1.722A1.722,1.722,0,0,1,24.143,27.994Zm13.108,4.865A7.543,7.543,0,1,1,44.8,25.316,7.545,7.545,0,0,1,37.251,32.858Z" transform="translate(-0.86 -3.985)" fill="#e9e9e9"/>
</svg>
